<svg width="250" height="250" viewBox="0 0 250 250" fill="none" xmlns="http://www.w3.org/2000/svg">
<rect width="250" height="250" fill="#F1F1F1"/>
<path d="M96.0557 166H94.333V161.577H89.8828V166H88.1533V156.047H89.8828V160.189H94.333V156.047H96.0557V166ZM101.203 166.137C100.15 166.137 99.2959 165.806 98.6396 165.146C97.988 164.48 97.6621 163.596 97.6621 162.493V162.288C97.6621 161.55 97.8034 160.891 98.0859 160.312C98.373 159.729 98.7741 159.276 99.2891 158.952C99.804 158.629 100.378 158.467 101.012 158.467C102.019 158.467 102.796 158.788 103.343 159.431C103.894 160.073 104.17 160.982 104.17 162.158V162.828H99.3369C99.387 163.439 99.5898 163.922 99.9453 164.277C100.305 164.633 100.757 164.811 101.299 164.811C102.06 164.811 102.68 164.503 103.158 163.888L104.054 164.742C103.757 165.184 103.361 165.528 102.864 165.774C102.372 166.016 101.818 166.137 101.203 166.137ZM101.005 159.8C100.549 159.8 100.18 159.959 99.8975 160.278C99.6195 160.597 99.4417 161.042 99.3643 161.611H102.529V161.488C102.493 160.932 102.345 160.513 102.085 160.23C101.825 159.943 101.465 159.8 101.005 159.8ZM111.539 163.621L113.043 158.604H114.813L111.874 167.121C111.423 168.365 110.657 168.987 109.577 168.987C109.336 168.987 109.069 168.946 108.777 168.864V167.579L109.092 167.6C109.511 167.6 109.826 167.522 110.035 167.367C110.249 167.217 110.418 166.962 110.541 166.602L110.78 165.966L108.183 158.604H109.974L111.539 163.621ZM115.422 164.674C115.882 164.159 116.19 163.671 116.345 163.211C116.504 162.746 116.6 162.154 116.632 161.434L116.728 158.604H121.861V164.674H122.887V168.201H121.232V166H116.488V168.201H114.807L114.813 164.674H115.422ZM117.37 164.674H120.207V160.032H118.341L118.293 161.447C118.229 162.805 117.922 163.881 117.37 164.674ZM128.492 166C128.419 165.859 128.355 165.629 128.301 165.31C127.772 165.861 127.125 166.137 126.359 166.137C125.617 166.137 125.01 165.925 124.541 165.501C124.072 165.077 123.837 164.553 123.837 163.929C123.837 163.14 124.129 162.536 124.712 162.117C125.3 161.693 126.138 161.481 127.228 161.481H128.246V160.996C128.246 160.613 128.139 160.308 127.925 160.08C127.711 159.848 127.385 159.731 126.947 159.731C126.569 159.731 126.259 159.827 126.018 160.019C125.776 160.205 125.655 160.445 125.655 160.736H123.994C123.994 160.331 124.129 159.952 124.397 159.602C124.666 159.246 125.031 158.968 125.491 158.768C125.956 158.567 126.473 158.467 127.043 158.467C127.909 158.467 128.599 158.686 129.114 159.123C129.629 159.556 129.894 160.167 129.907 160.955V164.291C129.907 164.956 130.001 165.487 130.188 165.884V166H128.492ZM126.667 164.804C126.995 164.804 127.303 164.724 127.59 164.564C127.882 164.405 128.1 164.191 128.246 163.922V162.527H127.351C126.735 162.527 126.273 162.634 125.963 162.849C125.653 163.063 125.498 163.366 125.498 163.758C125.498 164.077 125.603 164.332 125.812 164.523C126.027 164.71 126.312 164.804 126.667 164.804ZM137.933 158.604V166H136.271V159.943H134.18L134.043 162.521C133.956 163.76 133.717 164.651 133.325 165.193C132.938 165.731 132.343 166 131.541 166H131.028L131.021 164.619L131.363 164.585C131.728 164.535 131.992 164.314 132.156 163.922C132.325 163.525 132.432 162.805 132.478 161.762L132.614 158.604H137.933ZM139.389 162.233C139.389 161.509 139.532 160.857 139.819 160.278C140.106 159.695 140.51 159.248 141.029 158.938C141.549 158.624 142.146 158.467 142.82 158.467C143.818 158.467 144.627 158.788 145.247 159.431C145.871 160.073 146.209 160.925 146.259 161.987L146.266 162.377C146.266 163.106 146.124 163.758 145.842 164.332C145.564 164.906 145.163 165.351 144.639 165.665C144.119 165.979 143.518 166.137 142.834 166.137C141.79 166.137 140.954 165.79 140.325 165.098C139.701 164.4 139.389 163.473 139.389 162.315V162.233ZM141.05 162.377C141.05 163.138 141.207 163.735 141.521 164.168C141.836 164.596 142.273 164.811 142.834 164.811C143.395 164.811 143.83 164.592 144.14 164.154C144.454 163.717 144.611 163.076 144.611 162.233C144.611 161.486 144.45 160.894 144.126 160.456C143.807 160.019 143.372 159.8 142.82 159.8C142.278 159.8 141.847 160.016 141.528 160.449C141.209 160.878 141.05 161.52 141.05 162.377ZM150.709 164.811C151.124 164.811 151.468 164.69 151.741 164.448C152.015 164.207 152.16 163.908 152.179 163.553H153.744C153.726 164.013 153.582 164.444 153.313 164.845C153.045 165.241 152.68 165.556 152.22 165.788C151.759 166.021 151.263 166.137 150.729 166.137C149.695 166.137 148.875 165.802 148.269 165.132C147.662 164.462 147.359 163.537 147.359 162.356V162.186C147.359 161.06 147.66 160.16 148.262 159.485C148.863 158.806 149.684 158.467 150.723 158.467C151.602 158.467 152.318 158.724 152.869 159.239C153.425 159.75 153.717 160.422 153.744 161.256H152.179C152.16 160.832 152.015 160.483 151.741 160.21C151.472 159.937 151.128 159.8 150.709 159.8C150.171 159.8 149.757 159.996 149.465 160.388C149.173 160.775 149.025 161.365 149.021 162.158V162.425C149.021 163.227 149.164 163.826 149.451 164.223C149.743 164.615 150.162 164.811 150.709 164.811ZM156.786 160.955H158.413C159.019 160.955 159.548 161.06 159.999 161.27C160.45 161.479 160.792 161.773 161.024 162.151C161.261 162.53 161.38 162.969 161.38 163.471C161.38 164.232 161.111 164.842 160.573 165.303C160.035 165.763 159.32 165.995 158.427 166H155.125V158.604H156.786V160.955ZM156.786 162.288V164.674H158.406C158.812 164.674 159.131 164.574 159.363 164.373C159.6 164.168 159.719 163.879 159.719 163.505C159.719 163.131 159.603 162.837 159.37 162.623C159.142 162.404 158.832 162.293 158.44 162.288H156.786ZM54.8691 176.627C54.8691 176.955 54.7689 177.258 54.5684 177.536C54.3724 177.81 54.0944 178.028 53.7344 178.192C54.582 178.489 55.0059 179.061 55.0059 179.908C55.0059 180.587 54.7301 181.13 54.1787 181.535C53.6273 181.936 52.889 182.137 51.9639 182.137C51.3988 182.137 50.8838 182.043 50.4189 181.856C49.9541 181.665 49.5918 181.396 49.332 181.05C49.0723 180.699 48.9424 180.284 48.9424 179.806H50.5967C50.5967 180.106 50.7311 180.359 51 180.564C51.2689 180.765 51.6084 180.865 52.0186 180.865C52.4242 180.865 52.7454 180.772 52.9824 180.585C53.224 180.394 53.3447 180.145 53.3447 179.84C53.3447 179.48 53.2399 179.22 53.0303 179.061C52.8206 178.901 52.4971 178.821 52.0596 178.821H50.8701V177.625H52.1006C52.8434 177.616 53.2148 177.311 53.2148 176.709C53.2148 176.408 53.1077 176.174 52.8936 176.005C52.6794 175.836 52.3854 175.752 52.0117 175.752C51.6471 175.752 51.3395 175.843 51.0889 176.025C50.8382 176.203 50.7129 176.429 50.7129 176.702H49.0586C49.0586 176.05 49.332 175.517 49.8789 175.103C50.4258 174.683 51.1208 174.474 51.9639 174.474C52.8799 174.474 53.5931 174.66 54.1035 175.034C54.6139 175.408 54.8691 175.939 54.8691 176.627ZM60.8369 182C60.764 181.859 60.7002 181.629 60.6455 181.31C60.1169 181.861 59.4697 182.137 58.7041 182.137C57.9613 182.137 57.3551 181.925 56.8857 181.501C56.4163 181.077 56.1816 180.553 56.1816 179.929C56.1816 179.14 56.4733 178.536 57.0566 178.117C57.6445 177.693 58.4831 177.481 59.5723 177.481H60.5908V176.996C60.5908 176.613 60.4837 176.308 60.2695 176.08C60.0553 175.848 59.7295 175.731 59.292 175.731C58.9137 175.731 58.6038 175.827 58.3623 176.019C58.1208 176.205 58 176.445 58 176.736H56.3389C56.3389 176.331 56.4733 175.952 56.7422 175.602C57.0111 175.246 57.3757 174.968 57.8359 174.768C58.3008 174.567 58.818 174.467 59.3877 174.467C60.2536 174.467 60.944 174.686 61.459 175.123C61.974 175.556 62.2383 176.167 62.252 176.955V180.291C62.252 180.956 62.3454 181.487 62.5322 181.884V182H60.8369ZM59.0117 180.804C59.3398 180.804 59.6475 180.724 59.9346 180.564C60.2262 180.405 60.445 180.191 60.5908 179.922V178.527H59.6953C59.0801 178.527 58.6175 178.634 58.3076 178.849C57.9977 179.063 57.8428 179.366 57.8428 179.758C57.8428 180.077 57.9476 180.332 58.1572 180.523C58.3714 180.71 58.6562 180.804 59.0117 180.804ZM68.917 175.943H65.7041V182H64.0498V174.604H68.917V175.943ZM76.334 178.377C76.334 179.521 76.0742 180.435 75.5547 181.118C75.0352 181.797 74.3379 182.137 73.4629 182.137C72.6517 182.137 72.0023 181.87 71.5146 181.337V184.844H69.8535V174.604H71.3848L71.4531 175.355C71.9408 174.763 72.6038 174.467 73.4424 174.467C74.3447 174.467 75.0511 174.804 75.5615 175.479C76.0765 176.148 76.334 177.08 76.334 178.274V178.377ZM74.6797 178.233C74.6797 177.495 74.5316 176.91 74.2354 176.477C73.9437 176.044 73.5244 175.827 72.9775 175.827C72.2985 175.827 71.8109 176.107 71.5146 176.668V179.949C71.8154 180.523 72.3076 180.811 72.9912 180.811C73.5199 180.811 73.9323 180.599 74.2285 180.175C74.5293 179.746 74.6797 179.099 74.6797 178.233ZM80.251 179.621L81.7549 174.604H83.5254L80.5859 183.121C80.1348 184.365 79.3691 184.987 78.2891 184.987C78.0475 184.987 77.7809 184.946 77.4893 184.864V183.579L77.8037 183.6C78.223 183.6 78.5374 183.522 78.7471 183.367C78.9613 183.217 79.1299 182.962 79.2529 182.602L79.4922 181.966L76.8945 174.604H78.6855L80.251 179.621ZM90.0879 176.627C90.0879 176.955 89.9876 177.258 89.7871 177.536C89.5911 177.81 89.3132 178.028 88.9531 178.192C89.8008 178.489 90.2246 179.061 90.2246 179.908C90.2246 180.587 89.9489 181.13 89.3975 181.535C88.846 181.936 88.1077 182.137 87.1826 182.137C86.6175 182.137 86.1025 182.043 85.6377 181.856C85.1729 181.665 84.8105 181.396 84.5508 181.05C84.291 180.699 84.1611 180.284 84.1611 179.806H85.8154C85.8154 180.106 85.9499 180.359 86.2188 180.564C86.4876 180.765 86.8271 180.865 87.2373 180.865C87.6429 180.865 87.9642 180.772 88.2012 180.585C88.4427 180.394 88.5635 180.145 88.5635 179.84C88.5635 179.48 88.4587 179.22 88.249 179.061C88.0394 178.901 87.7158 178.821 87.2783 178.821H86.0889V177.625H87.3193C88.0622 177.616 88.4336 177.311 88.4336 176.709C88.4336 176.408 88.3265 176.174 88.1123 176.005C87.8981 175.836 87.6042 175.752 87.2305 175.752C86.8659 175.752 86.5583 175.843 86.3076 176.025C86.057 176.203 85.9316 176.429 85.9316 176.702H84.2773C84.2773 176.05 84.5508 175.517 85.0977 175.103C85.6445 174.683 86.3395 174.474 87.1826 174.474C88.0986 174.474 88.8118 174.66 89.3223 175.034C89.8327 175.408 90.0879 175.939 90.0879 176.627ZM96.2539 174.604H97.9082V182H96.2539V177.064L93.3555 182H91.7012V174.604H93.3555V179.539L96.2539 174.604ZM105.496 175.923H103.097V182H101.436V175.923H99.0635V174.604H105.496V175.923ZM108.395 176.955H110.021C110.628 176.955 111.156 177.06 111.607 177.27C112.059 177.479 112.4 177.773 112.633 178.151C112.87 178.53 112.988 178.969 112.988 179.471C112.988 180.232 112.719 180.842 112.182 181.303C111.644 181.763 110.928 181.995 110.035 182H106.733V174.604H108.395V176.955ZM108.395 178.288V180.674H110.015C110.42 180.674 110.739 180.574 110.972 180.373C111.209 180.168 111.327 179.879 111.327 179.505C111.327 179.131 111.211 178.837 110.979 178.623C110.751 178.404 110.441 178.293 110.049 178.288H108.395ZM117.527 178.404C117.527 177.197 117.764 176.24 118.238 175.533C118.717 174.822 119.382 174.467 120.234 174.467C120.581 174.467 120.895 174.531 121.178 174.658V171.5H122.832V174.686C123.124 174.54 123.465 174.467 123.857 174.467C124.705 174.467 125.368 174.82 125.847 175.526C126.33 176.228 126.571 177.235 126.571 178.548C126.571 179.655 126.33 180.53 125.847 181.173C125.364 181.815 124.705 182.137 123.871 182.137C123.493 182.137 123.146 182.068 122.832 181.932V184.844H121.178V181.959C120.9 182.077 120.581 182.137 120.221 182.137C119.423 182.137 118.785 181.843 118.307 181.255C117.833 180.662 117.575 179.849 117.534 178.814L117.527 178.404ZM124.91 178.404C124.91 177.575 124.778 176.935 124.514 176.483C124.249 176.028 123.876 175.8 123.393 175.8C123.188 175.8 123.001 175.829 122.832 175.889V180.742C122.982 180.788 123.174 180.811 123.406 180.811C124.409 180.811 124.91 180.008 124.91 178.404ZM119.182 178.548C119.182 179.286 119.305 179.849 119.551 180.236C119.797 180.619 120.161 180.811 120.645 180.811C120.85 180.811 121.027 180.788 121.178 180.742V175.868C121.023 175.823 120.85 175.8 120.658 175.8C120.184 175.8 119.82 176.021 119.564 176.463C119.309 176.9 119.182 177.595 119.182 178.548ZM127.692 178.233C127.692 177.509 127.836 176.857 128.123 176.278C128.41 175.695 128.813 175.248 129.333 174.938C129.853 174.624 130.45 174.467 131.124 174.467C132.122 174.467 132.931 174.788 133.551 175.431C134.175 176.073 134.512 176.925 134.562 177.987L134.569 178.377C134.569 179.106 134.428 179.758 134.146 180.332C133.868 180.906 133.466 181.351 132.942 181.665C132.423 181.979 131.821 182.137 131.138 182.137C130.094 182.137 129.258 181.79 128.629 181.098C128.005 180.4 127.692 179.473 127.692 178.315V178.233ZM129.354 178.377C129.354 179.138 129.511 179.735 129.825 180.168C130.14 180.596 130.577 180.811 131.138 180.811C131.698 180.811 132.133 180.592 132.443 180.154C132.758 179.717 132.915 179.076 132.915 178.233C132.915 177.486 132.753 176.894 132.43 176.456C132.111 176.019 131.675 175.8 131.124 175.8C130.582 175.8 130.151 176.016 129.832 176.449C129.513 176.878 129.354 177.52 129.354 178.377ZM141.59 175.923H139.19V182H137.529V175.923H135.157V174.604H141.59V175.923ZM142.185 178.233C142.185 177.509 142.328 176.857 142.615 176.278C142.902 175.695 143.306 175.248 143.825 174.938C144.345 174.624 144.942 174.467 145.616 174.467C146.614 174.467 147.423 174.788 148.043 175.431C148.667 176.073 149.005 176.925 149.055 177.987L149.062 178.377C149.062 179.106 148.92 179.758 148.638 180.332C148.36 180.906 147.959 181.351 147.435 181.665C146.915 181.979 146.313 182.137 145.63 182.137C144.586 182.137 143.75 181.79 143.121 181.098C142.497 180.4 142.185 179.473 142.185 178.315V178.233ZM143.846 178.377C143.846 179.138 144.003 179.735 144.317 180.168C144.632 180.596 145.069 180.811 145.63 180.811C146.19 180.811 146.626 180.592 146.936 180.154C147.25 179.717 147.407 179.076 147.407 178.233C147.407 177.486 147.245 176.894 146.922 176.456C146.603 176.019 146.168 175.8 145.616 175.8C145.074 175.8 144.643 176.016 144.324 176.449C144.005 176.878 143.846 177.52 143.846 178.377ZM155.392 175.943H152.179V182H150.524V174.604H155.392V175.943ZM162.809 178.377C162.809 179.521 162.549 180.435 162.029 181.118C161.51 181.797 160.812 182.137 159.938 182.137C159.126 182.137 158.477 181.87 157.989 181.337V184.844H156.328V174.604H157.859L157.928 175.355C158.415 174.763 159.078 174.467 159.917 174.467C160.819 174.467 161.526 174.804 162.036 175.479C162.551 176.148 162.809 177.08 162.809 178.274V178.377ZM161.154 178.233C161.154 177.495 161.006 176.91 160.71 176.477C160.418 176.044 159.999 175.827 159.452 175.827C158.773 175.827 158.285 176.107 157.989 176.668V179.949C158.29 180.523 158.782 180.811 159.466 180.811C159.994 180.811 160.407 180.599 160.703 180.175C161.004 179.746 161.154 179.099 161.154 178.233ZM168.64 182C168.567 181.859 168.503 181.629 168.448 181.31C167.92 181.861 167.272 182.137 166.507 182.137C165.764 182.137 165.158 181.925 164.688 181.501C164.219 181.077 163.984 180.553 163.984 179.929C163.984 179.14 164.276 178.536 164.859 178.117C165.447 177.693 166.286 177.481 167.375 177.481H168.394V176.996C168.394 176.613 168.286 176.308 168.072 176.08C167.858 175.848 167.532 175.731 167.095 175.731C166.716 175.731 166.407 175.827 166.165 176.019C165.924 176.205 165.803 176.445 165.803 176.736H164.142C164.142 176.331 164.276 175.952 164.545 175.602C164.814 175.246 165.178 174.968 165.639 174.768C166.104 174.567 166.621 174.467 167.19 174.467C168.056 174.467 168.747 174.686 169.262 175.123C169.777 175.556 170.041 176.167 170.055 176.955V180.291C170.055 180.956 170.148 181.487 170.335 181.884V182H168.64ZM166.814 180.804C167.143 180.804 167.45 180.724 167.737 180.564C168.029 180.405 168.248 180.191 168.394 179.922V178.527H167.498C166.883 178.527 166.42 178.634 166.11 178.849C165.8 179.063 165.646 179.366 165.646 179.758C165.646 180.077 165.75 180.332 165.96 180.523C166.174 180.71 166.459 180.804 166.814 180.804ZM171.518 178.404C171.518 177.197 171.755 176.24 172.229 175.533C172.707 174.822 173.372 174.467 174.225 174.467C174.571 174.467 174.885 174.531 175.168 174.658V171.5H176.822V174.686C177.114 174.54 177.456 174.467 177.848 174.467C178.695 174.467 179.358 174.82 179.837 175.526C180.32 176.228 180.562 177.235 180.562 178.548C180.562 179.655 180.32 180.53 179.837 181.173C179.354 181.815 178.695 182.137 177.861 182.137C177.483 182.137 177.137 182.068 176.822 181.932V184.844H175.168V181.959C174.89 182.077 174.571 182.137 174.211 182.137C173.413 182.137 172.775 181.843 172.297 181.255C171.823 180.662 171.565 179.849 171.524 178.814L171.518 178.404ZM178.9 178.404C178.9 177.575 178.768 176.935 178.504 176.483C178.24 176.028 177.866 175.8 177.383 175.8C177.178 175.8 176.991 175.829 176.822 175.889V180.742C176.973 180.788 177.164 180.811 177.396 180.811C178.399 180.811 178.9 180.008 178.9 178.404ZM173.172 178.548C173.172 179.286 173.295 179.849 173.541 180.236C173.787 180.619 174.152 180.811 174.635 180.811C174.84 180.811 175.018 180.788 175.168 180.742V175.868C175.013 175.823 174.84 175.8 174.648 175.8C174.174 175.8 173.81 176.021 173.555 176.463C173.299 176.9 173.172 177.595 173.172 178.548ZM186.611 174.604H188.266V182H186.611V177.064L183.713 182H182.059V174.604H183.713V179.539L186.611 174.604ZM191.834 177.577H193.229C193.352 176.634 193.716 175.88 194.322 175.314C194.928 174.749 195.694 174.467 196.619 174.467C197.617 174.467 198.426 174.788 199.046 175.431C199.67 176.073 200.007 176.925 200.058 177.987L200.064 178.377C200.064 179.106 199.923 179.758 199.641 180.332C199.363 180.906 198.962 181.351 198.438 181.665C197.918 181.979 197.316 182.137 196.633 182.137C195.676 182.137 194.89 181.84 194.274 181.248C193.664 180.656 193.311 179.876 193.215 178.91H191.834V182H190.173V174.604H191.834V177.577ZM194.849 178.377C194.849 179.138 195.006 179.735 195.32 180.168C195.635 180.596 196.072 180.811 196.633 180.811C197.193 180.811 197.629 180.592 197.938 180.154C198.248 179.717 198.403 179.076 198.403 178.233C198.403 177.472 198.242 176.878 197.918 176.449C197.599 176.016 197.166 175.8 196.619 175.8C196.077 175.8 195.646 176.016 195.327 176.449C195.008 176.878 194.849 177.52 194.849 178.377Z" fill="#ADADAD"/>
<path d="M159.92 73.889H90.0794C87.2744 73.889 85 76.1633 85 78.9683V131.032C85 133.837 87.2744 136.111 90.0794 136.111H159.92C162.726 136.111 165 133.837 165 131.032V78.9683C165 76.1633 162.726 73.889 159.92 73.889ZM159.92 78.9683V115.909L149.91 106.808C148.406 105.441 146.092 105.495 144.655 106.934L134.524 117.063L114.548 93.2032C113.038 91.4 110.272 91.3823 108.74 93.1638L90.0794 114.85V78.9683H159.92ZM138.333 92.3017C138.333 88.4439 141.459 85.3175 145.317 85.3175C149.175 85.3175 152.301 88.4439 152.301 92.3017C152.301 96.1595 149.175 99.2857 145.317 99.2857C141.46 99.2858 138.333 96.1595 138.333 92.3017Z" fill="#ADADAD"/>
</svg>
